<?xml version="1.0" encoding="UTF-8"?>
<svg id="Layer_1" data-name="Layer 1" xmlns="http://www.w3.org/2000/svg" xmlns:xlink="http://www.w3.org/1999/xlink" viewBox="0 0 112.7 24.93">
  <defs>
    <style>
      .cls-1 {
        fill: url(#radial-gradient-2);
      }

      .cls-2 {
        fill: url(#radial-gradient);
      }

      .cls-3 {
        fill: #27aae1;
      }

      .cls-4 {
        fill: #ffffff;
      }
    </style>
    <radialGradient id="radial-gradient" cx="12.43" cy="13.56" fx="12.43" fy="13.56" r="13.55" gradientTransform="translate(.04 .06)" gradientUnits="userSpaceOnUse">
      <stop offset="0" stop-color="#badaf3"/>
      <stop offset=".39" stop-color="#3fbced"/>
      <stop offset=".67" stop-color="#3dbaeb"/>
      <stop offset=".76" stop-color="#39b3e7"/>
      <stop offset=".83" stop-color="#32a7df"/>
      <stop offset=".89" stop-color="#2796d3"/>
      <stop offset=".94" stop-color="#1980c4"/>
      <stop offset=".98" stop-color="#0866b2"/>
      <stop offset="1" stop-color="#0058a9"/>
    </radialGradient>
    <radialGradient id="radial-gradient-2" cx="12.66" cy="7145.91" fx="12.66" fy="7145.91" r="10.67" gradientTransform="translate(.04 -3884.59) scale(1 .55)" gradientUnits="userSpaceOnUse">
      <stop offset="0" stop-color="#82c341"/>
      <stop offset=".41" stop-color="#7fc141"/>
      <stop offset=".59" stop-color="#78ba41"/>
      <stop offset=".73" stop-color="#6caf42"/>
      <stop offset=".84" stop-color="#5aa042"/>
      <stop offset=".94" stop-color="#438b44"/>
      <stop offset="1" stop-color="#307b45"/>
    </radialGradient>
  </defs>
  <g>
    <g>
      <path class="cls-3" d="M7.95,14.97l-.22-.66h-1.58l-.24.66h-1.25l1.82-4.54h.92l1.8,4.54h-1.26ZM6.95,11.85l-.48,1.55h.94l-.47-1.55Z"/>
      <path class="cls-3" d="M10.68,14.97h-1.11v-4.54h1.48c.66,0,1.12.11,1.39.34.35.29.53.69.53,1.2s-.16.88-.48,1.18c-.28.26-.72.39-1.33.39h-.5v1.42ZM10.68,11.47v1.06h.47c.48,0,.72-.18.72-.53s-.26-.53-.77-.53h-.42Z"/>
      <path class="cls-3" d="M14.74,14.97h-1.11v-4.54h2.48v1.03h-1.37v.75h1.32v1.03h-1.32v1.73Z"/>
      <path class="cls-3" d="M19.39,10.87c.11.13.18.26.22.38.04.12.07.29.08.51h-1.15c-.04-.29-.18-.44-.41-.44-.11,0-.2.03-.28.1-.08.07-.12.15-.12.24,0,.18.13.33.45l.56.25c.38.17.65.36.81.56.16.2.24.45.24.75,0,.43-.14.77-.42,1.02-.28.25-.67.37-1.17.37s-.91-.13-1.2-.39c-.29-.26-.44-.61-.44-1.05v-.15h1.16c0,.19.04.33.13.44.08.11.2.17.35.17.13,0,.23-.04.32-.13.09-.08.13-.19.13-.31,0-.2-.16-.36-.48-.49l-.53-.22c-.22-.1-.4-.2-.54-.32-.31-.24-.46-.56-.46-.94s.15-.69.46-.95c.31-.26.68-.39,1.13-.39.53,0,.94.17,1.23.52Z"/>
    </g>
    <path class="cls-2" d="M6.41,20.7c.53.22,1.07.41,1.61.58-3.21-1.63-5.42-4.96-5.42-8.8C2.6,7.03,7.03,2.6,12.47,2.6s9.87,4.43,9.87,9.87c0,3.84-2.2,7.17-5.41,8.8.54-.16,1.06-.35,1.58-.57.14-.06.29-.12.43-.19.04-.02.07-.03.11-.05l.13-.06c.06-.03.12-.06.19-.09.05-.03.11-.05.16-.08l.14-.07s.08-.04.12-.06c.07-.04.15-.08.22-.12l.11-.06s.05-.03.08-.04c.1-.05.19-.11.29-.17l.05-.03s.04-.02.06-.04c.1-.06.21-.13.31-.19l.04-.03s.03-.02.04-.02c.11-.07.22-.15.33-.22l.06-.04c.1-.07.21-.15.34-.24l.04-.03c.11-.08.22-.17.34-.26h.02c.12-.1.23-.2.35-.3h0c.65-.54,1.15-1.04,1.57-1.76.68-1.17.92-2.66.92-4.1C24.93,5.59,19.34,0,12.47,0S0,5.59,0,12.47c0,1.44.24,2.93.93,4.1,1.2,2.05,3.3,3.21,5.48,4.13Z"/>
    <path class="cls-1" d="M12.47,24.93c4.83,0,9.03-2.76,11.1-6.79-.24.22-.48.44-.73.65h0c-.13.11-.25.21-.36.3h-.02c-.13.12-.25.2-.36.29l-.04.03c-.13.09-.24.17-.35.25l-.06.04c-.14.09-.24.16-.34.23-.02,0-.03.02-.05.03l-.03.02c-.11.07-.22.14-.32.2-.02.01-.05.03-.07.04l-.04.03c-.1.06-.2.12-.3.18-.03.02-.06.03-.09.05l-.1.06c-.08.04-.15.08-.23.12-.04.02-.09.04-.13.07l-.13.07c-.06.03-.11.06-.17.09-.06.03-.13.06-.2.09l-.13.06s-.08.04-.12.05c-.15.07-.3.13-.45.2-1.99.83-4.1,1.25-6.28,1.25s-4.3-.42-6.29-1.26c-1.77-.74-3.4-1.8-4.8-3.11,2.07,4.03,6.27,6.79,11.1,6.79Z"/>
  </g>
  <path class="cls-4" d="M53.34,11.29c.17.3.4.58.71.85.37.32.81.57,1.3.75l.59-.91c-.28-.12-.53-.27-.76-.43-.23-.16-.43-.35-.6-.55-.17-.2-.3-.43-.39-.68-.09-.25-.14-.52-.14-.82v-.24h1.54v-1h-4.38v1h1.42v.24c0,.3-.05.57-.14.82-.09.25-.22.47-.39.68-.17.2-.37.39-.6.55-.23.17-.49.31-.76.43l.59.91c.5-.18.93-.43,1.3-.75.31-.27.54-.55.71-.85Z"/>
  <path class="cls-4" d="M36.74,11.08h2.68v-1.07h-5.06c-.12,0-.2-.02-.25-.06-.03-.03-.05-.07-.06-.13v-1.76s-1.64,0-1.64,0c.12.08.2.18.26.31.06.12.08.25.08.36v1.55c0,.25.08.44.23.59.16.15.36.22.62.22h1.84v.82h-3.55v1.12h8.38v-1.12h-3.55v-.82Z"/>
  <path class="cls-4" d="M38.57,13.99c-.29-.17-.63-.3-1.04-.39-.41-.09-.88-.14-1.4-.14s-1,.05-1.41.14c-.41.09-.76.22-1.06.39-.29.17-.51.36-.66.58-.15.22-.22.46-.22.71s.08.49.22.72c.15.22.37.42.66.58.29.16.64.29,1.06.39.41.09.88.14,1.41.14s.99-.05,1.4-.14c.41-.1.76-.22,1.04-.39.28-.16.5-.35.65-.58.15-.22.23-.46.23-.72s-.07-.49-.23-.71c-.15-.22-.37-.42-.65-.58ZM37.49,15.94c-.33.17-.78.25-1.36.25s-1.03-.08-1.37-.25-.51-.39-.51-.66c0-.28.17-.51.51-.67.34-.16.8-.24,1.37-.24s1.03.08,1.36.24c.33.16.49.38.49.67s-.16.49-.49.66Z"/>
  <path class="cls-4" d="M47.36,7.88c.1.06.19.15.25.29.06.13.09.25.09.37v1.43h-1.54c-.06-.23-.15-.46-.28-.67-.13-.21-.29-.4-.49-.55-.2-.16-.43-.29-.7-.38-.27-.09-.56-.14-.88-.14-.38,0-.72.07-1.02.2-.3.13-.55.3-.76.51-.21.21-.36.45-.47.73-.11.27-.16.55-.16.84s.05.57.16.84c.11.27.26.51.47.73.21.21.46.38.76.51.3.13.64.19,1.02.19.34,0,.64-.05.92-.15.27-.1.51-.24.71-.41.2-.17.37-.37.49-.59.13-.23.21-.46.26-.71h1.51v2.03h1.29s0-5.05,0-5.05h-1.64ZM44.92,10.96c-.05.15-.13.29-.23.41-.1.12-.22.22-.37.29-.15.07-.31.11-.5.11s-.36-.04-.5-.11c-.15-.07-.27-.17-.37-.29-.1-.12-.18-.26-.23-.41-.05-.15-.08-.31-.08-.47s.03-.32.08-.47c.05-.15.13-.29.23-.41.1-.12.22-.22.37-.29.15-.07.31-.11.5-.11s.36.04.5.11c.15.07.27.17.37.29.1.12.18.26.23.41.05.15.08.31.08.47s-.03.32-.08.47Z"/>
  <path class="cls-4" d="M57.44,13.89c-.27-.17-.59-.3-.98-.4-.39-.1-.83-.14-1.33-.14s-.94.05-1.33.14c-.39.1-.72.23-.99.4s-.48.37-.62.6c-.14.23-.22.47-.22.73s.07.5.22.73c.14.23.35.42.62.58.27.17.6.3.99.39s.83.14,1.33.14.94-.05,1.33-.14c.39-.1.72-.23.98-.39.27-.16.47-.36.62-.58.14-.23.21-.47.21-.73s-.07-.5-.21-.73c-.14-.23-.35-.43-.62-.6ZM56.37,15.9c-.3.18-.71.27-1.23.27s-.93-.09-1.24-.27c-.31-.18-.46-.4-.46-.67,0-.29.15-.52.46-.7.3-.18.72-.27,1.24-.27s.93.09,1.23.27c.3.18.45.42.45.7,0,.27-.15.49-.45.67Z"/>
  <path class="cls-4" d="M56.87,8.16c.06.13.09.25.09.37v1.27h-1.45v.94h1.45v2.23h1.29v-4.47s0-.02,0-.03v-.58h-.65s0,0,0,0h-.97c.1.06.19.15.25.29Z"/>
  <path class="cls-4" d="M48.33,13.45h-.96c.1.06.18.15.25.29.06.12.08.24.09.34v.18h-3.7v-.8h-.63s-.02,0-.03,0h-.96c.1.06.18.15.25.29.06.13.09.25.09.36v1.36h0s0,.53,0,.53c0,.33.08.57.25.73.16.16.37.23.63.23h5.38v-3.51h-.65s-.01,0-.02,0ZM47.7,16.02h-3.41c-.12,0-.2-.03-.23-.08-.04-.06-.06-.14-.06-.26v-.49h3.7v.83Z"/>
  <path class="cls-4" d="M64.51,8.36c.03.14.05.27.05.37v4.24h1.19v-1.86h.89v1.89h1.21v-.24h0v-4.89h-.65s0,0,0,0h-.88c.12.07.2.17.25.3.05.13.07.25.07.34v1.67h-.89v-2.15s-1.46,0-1.46,0c.11.07.18.18.22.32Z"/>
  <path class="cls-4" d="M62.18,11.53c.06.15.15.3.27.45.12.15.27.29.42.43.16.13.33.25.51.36.18.11.36.19.54.25l.5-.71c-.53-.27-.94-.59-1.22-.96-.28-.38-.44-.84-.47-1.39h1.48v-.94h-1.47v-.45s0-.02,0-.03v-.59h-1.55c.06.03.11.08.14.13.04.05.06.11.08.18.02.06.04.12.04.18,0,.06.01.12.01.16v.42h-1.44v.94h1.44c-.03.54-.19,1-.47,1.39-.28.39-.69.72-1.24,1.01l.64.83c.41-.19.77-.43,1.09-.72.32-.29.54-.6.67-.93Z"/>
  <path class="cls-4" d="M73.93,12.87h2.18v-4.58s-1.67,0-1.67,0c.25.19.38.5.38.91v.7h-3.38v-1.55h-1.67c.25.2.38.5.38.92v2.64c0,.33.08.58.25.73.16.16.37.23.63.23h1.34v1.66h-3.21v1.1h8.03v-1.1h-3.26v-1.66ZM71.76,11.93c-.12,0-.2-.02-.25-.06-.05-.04-.07-.11-.07-.22v-.82h3.38v1.1h-3.06Z"/>
  <path class="cls-4" d="M80.44,13.14c.34,0,.64-.05.91-.15.27-.1.5-.24.69-.41.19-.17.33-.37.43-.6.1-.23.15-.48.15-.74,0-.54-.19-.99-.57-1.36h1.02v-.94h-2v-1.07s-1.55,0-1.55,0c.11.07.19.18.25.31.06.14.08.25.08.34v.42h-2.05v.94h1.03c-.19.17-.33.38-.42.61-.09.23-.14.48-.14.75s.05.51.15.74c.1.23.24.43.43.6.19.17.42.31.68.41.27.1.57.15.92.15ZM79.72,10.46c.17-.2.41-.3.73-.3s.56.1.73.3c.17.2.25.44.25.73s-.08.53-.25.73c-.17.19-.41.29-.73.29s-.55-.1-.73-.29c-.17-.19-.26-.43-.26-.73s.08-.53.26-.73Z"/>
  <polygon class="cls-4" points="93.79 8.34 88.14 8.33 88.14 9.27 92.53 9.27 92.52 11.55 86.9 11.55 86.9 12.73 95.28 12.73 95.28 11.55 93.8 11.55 93.79 8.34"/>
  <path class="cls-4" d="M97.91,11.11c.27.17.59.3.98.4.39.09.83.14,1.33.14s.94-.05,1.33-.14c.39-.09.72-.23.98-.4.27-.17.47-.37.6-.6.14-.23.2-.48.2-.75s-.07-.51-.2-.75c-.14-.23-.34-.43-.6-.6-.27-.17-.59-.3-.98-.4-.39-.09-.83-.14-1.33-.14s-.94.05-1.33.14c-.39.09-.72.23-.98.4-.27.17-.47.37-.6.6-.13.23-.2.48-.2.75s.07.51.2.75c.14.23.34.43.6.6ZM98.99,9.1c.31-.15.72-.22,1.24-.22s.93.08,1.24.22c.3.15.46.37.46.66s-.15.51-.46.66c-.31.15-.72.22-1.24.22s-.93-.07-1.24-.22c-.3-.15-.46-.37-.46-.66s.15-.51.46-.66Z"/>
  <path class="cls-4" d="M105.88,10.45c.1.22.25.41.43.58.19.16.42.29.7.38.28.09.6.14.96.14s.68-.05.96-.14c.28-.09.52-.22.72-.38.19-.16.34-.35.44-.58.1-.22.15-.45.15-.7s-.05-.49-.15-.71c-.1-.22-.25-.41-.44-.57-.2-.16-.43-.29-.72-.39-.28-.09-.6-.14-.96-.14s-.68.05-.96.14c-.28.09-.51.22-.7.39-.19.16-.33.35-.43.57-.1.22-.15.45-.15.71s.05.48.15.7ZM107.2,9.15c.18-.16.44-.24.79-.24s.6.08.78.24c.18.16.27.36.27.6s-.09.44-.27.6c-.18.16-.44.24-.78.24s-.61-.08-.79-.24c-.18-.16-.27-.36-.27-.6s.09-.43.27-.6Z"/>
  <path class="cls-4" d="M107.81,15.87s-.07-.12-.07-.24v-1.24h-.66s0,0,0,0h-.96c.1.06.19.15.25.29.06.13.09.25.09.36v.9h0s0,.11,0,.11c0,.25.08.44.23.59.16.15.36.22.62.22h5.39v-.94h-4.64c-.12,0-.2-.02-.25-.06Z"/>
  <polygon class="cls-4" points="107.37 12.83 107.37 13.92 108.66 13.92 108.66 12.83 110.96 12.83 110.96 11.89 105.33 11.89 105.33 12.83 107.37 12.83"/>
  <path class="cls-4" d="M85.47,7.88h-1.63c.1.06.19.15.25.29.06.13.09.25.09.37v2.13h-1.25v.94h1.25v1.71h1.29v-5.44Z"/>
  <path class="cls-4" d="M112.7,7.88h-1.64c.1.06.19.15.25.29.06.13.09.25.09.37v4.76h-1.5v.94h1.5v.85h1.29v-7.19Z"/>
  <path class="cls-4" d="M85.47,13.8h-.68c-.06,0-.12-.01-.19-.01h-5.42v2.21c0,.33.08.57.25.73.17.16.37.23.63.23h5.42v-2.33s0,0,0-.01v-.82ZM84.18,15.14v.88h-3.41c-.12,0-.2-.02-.25-.06-.05-.04-.07-.12-.07-.23v-1.01h3.73v.43Z"/>
  <path class="cls-4" d="M94.07,13.54l-6.09.02v2.38c0,.33.08.58.25.73.17.16.38.23.63.23h5.21v-3.36ZM89.6,15.96c-.12,0-.2-.02-.25-.06-.05-.04-.08-.12-.08-.23v-1.18h3.51v1.47s-3.18,0-3.18,0Z"/>
  <polygon class="cls-4" points="66.66 13.6 61.49 13.6 61.49 14.53 66.56 14.53 66.56 15.05 66.56 17.03 67.85 17.03 67.85 16.4 67.85 16.4 67.85 13.59 66.66 13.59 66.66 13.6"/>
  <path class="cls-4" d="M104.24,12.96v-.93h-8.08v.93h1.77v.95c-.05.03-.1.05-.15.08-.29.17-.51.36-.66.58-.15.22-.23.46-.23.71s.08.49.23.72c.15.22.37.42.66.58.29.16.64.29,1.05.39.41.09.88.14,1.41.14s1-.05,1.41-.14c.41-.1.76-.22,1.04-.39.29-.16.5-.35.65-.58.15-.22.23-.46.23-.72s-.08-.49-.23-.71c-.15-.22-.37-.42-.65-.58-.05-.03-.11-.06-.17-.09v-.94h1.72ZM101.17,12.96v.56c-.29-.04-.59-.06-.93-.06s-.67.02-.96.06v-.56h1.89ZM100.25,14.37c.58,0,1.03.08,1.36.24.33.16.49.38.49.67s-.16.49-.49.66c-.33.17-.78.25-1.36.25s-1.03-.08-1.37-.25c-.34-.17-.51-.39-.51-.66,0-.28.17-.51.51-.67.34-.16.8-.24,1.37-.24Z"/>
</svg>
